<?xml version="1.0" encoding="UTF-8"?>
<svg xmlns="http://www.w3.org/2000/svg" xmlns:xlink="http://www.w3.org/1999/xlink" width="351pt" height="181pt" viewBox="0 0 351 181" version="1.1">
<g id="surface1">
<path style=" stroke:none;fill-rule:nonzero;fill:rgb(0%,38.039216%,54.117647%);fill-opacity:1;" d="M 0.664062 165.042969 C 0.664062 165.042969 12.183594 165.042969 12.183594 165.042969 C 12.183594 165.042969 12.183594 119.515625 12.183594 119.515625 C 12.183594 119.515625 30.023438 159.207031 30.023438 159.207031 C 32.128906 164.007812 35.007812 165.710938 40.65625 165.710938 C 46.308594 165.710938 49.078125 164.007812 51.183594 159.207031 C 51.183594 159.207031 69.019531 119.515625 69.019531 119.515625 C 69.019531 119.515625 69.019531 165.042969 69.019531 165.042969 C 69.019531 165.042969 80.542969 165.042969 80.542969 165.042969 C 80.542969 165.042969 80.542969 119.589844 80.542969 119.589844 C 80.542969 115.15625 78.769531 113.011719 75.113281 111.902344 C 66.363281 109.167969 60.488281 111.53125 57.832031 117.445312 C 57.832031 117.445312 40.324219 156.617188 40.324219 156.617188 C 40.324219 156.617188 23.375 117.445312 23.375 117.445312 C 20.828125 111.53125 14.84375 109.167969 6.089844 111.902344 C 2.433594 113.011719 0.664062 115.15625 0.664062 119.589844 C 0.664062 119.589844 0.664062 165.042969 0.664062 165.042969 Z M 0.664062 165.042969 "/>
<path style=" stroke:none;fill-rule:nonzero;fill:rgb(0%,38.039216%,54.117647%);fill-opacity:1;" d="M 90.125 127.984375 C 90.125 127.984375 101.644531 127.984375 101.644531 127.984375 C 101.644531 127.984375 101.644531 153.070312 101.644531 153.070312 C 101.535156 154.433594 102.078125 157.628906 108.390625 157.730469 C 111.613281 157.78125 133.246094 157.730469 133.449219 157.730469 C 133.449219 157.730469 133.449219 127.863281 133.449219 127.863281 C 133.449219 127.863281 144.992188 127.863281 144.992188 127.863281 C 145.046875 127.863281 144.980469 168.59375 144.980469 168.765625 C 145.046875 178.808594 132.527344 180.992188 126.757812 181.160156 C 126.757812 181.160156 90.375 181.160156 90.375 181.160156 C 90.375 181.160156 90.375 173.40625 90.375 173.40625 C 90.4375 173.40625 126.730469 173.410156 126.820312 173.402344 C 134.238281 172.617188 133.359375 168.929688 133.359375 167.6875 C 133.359375 167.6875 133.359375 164.664062 133.359375 164.664062 C 133.359375 164.664062 108.871094 164.664062 108.871094 164.664062 C 97.476562 164.558594 90.21875 159.585938 90.128906 153.859375 C 90.121094 153.328125 90.375 128.234375 90.125 127.984375 Z M 90.125 127.984375 "/>
<path style=" stroke:none;fill-rule:nonzero;fill:rgb(89.411765%,55.686275%,0%);fill-opacity:1;" d="M 153.871094 165.042969 C 153.871094 165.042969 187 165.042969 187 165.042969 C 190.875 165.042969 194.644531 164.230469 197.636719 162.828125 C 202.621094 160.535156 205.058594 157.433594 205.058594 153.367188 C 205.058594 153.367188 205.058594 144.941406 205.058594 144.941406 C 205.058594 141.613281 202.289062 138.511719 196.859375 136.441406 C 193.980469 135.332031 190.433594 134.742188 187 134.742188 C 187 134.742188 173.039062 134.742188 173.039062 134.742188 C 168.386719 134.742188 166.171875 133.335938 165.617188 130.234375 C 165.503906 129.863281 165.503906 129.566406 165.503906 129.199219 C 165.503906 129.199219 165.503906 123.949219 165.503906 123.949219 C 165.503906 123.65625 165.503906 123.359375 165.617188 122.988281 C 166.171875 120.625 167.390625 119.957031 171.488281 119.589844 C 171.820312 119.589844 172.261719 119.515625 172.597656 119.515625 C 172.597656 119.515625 205.5 119.515625 205.5 119.515625 C 205.5 119.515625 205.5 111.828125 205.5 111.828125 C 205.5 111.828125 173.148438 111.828125 173.148438 111.828125 C 168.496094 111.828125 166.058594 112.125 163.84375 112.789062 C 156.976562 114.933594 153.984375 118.332031 153.984375 124.246094 C 153.984375 124.246094 153.984375 130.972656 153.984375 130.972656 C 153.984375 136.144531 159.855469 140.582031 169.714844 141.613281 C 170.824219 141.6875 171.933594 141.761719 173.039062 141.761719 C 173.039062 141.761719 185.003906 141.761719 185.003906 141.761719 C 185.449219 141.761719 185.890625 141.761719 186.222656 141.835938 C 189.878906 142.132812 191.429688 142.796875 192.539062 144.128906 C 193.203125 144.792969 193.425781 145.457031 193.425781 146.195312 C 193.425781 146.195312 193.425781 152.921875 193.425781 152.921875 C 193.425781 153.734375 192.871094 154.769531 191.765625 155.65625 C 190.765625 156.542969 189.105469 157.136719 186.886719 157.285156 C 186.445312 157.285156 186.113281 157.359375 185.671875 157.359375 C 185.671875 157.359375 153.871094 157.359375 153.871094 157.359375 C 153.871094 157.359375 153.871094 165.042969 153.871094 165.042969 Z M 153.871094 165.042969 "/>
<path style=" stroke:none;fill-rule:nonzero;fill:rgb(89.411765%,55.686275%,0%);fill-opacity:1;" d="M 276.9375 151.667969 C 276.9375 159.574219 282.808594 164.007812 294.664062 164.898438 C 295.773438 164.96875 296.882812 165.042969 297.988281 165.042969 C 297.988281 165.042969 328.011719 165.042969 328.011719 165.042969 C 328.011719 165.042969 328.011719 157.359375 328.011719 157.359375 C 328.011719 157.359375 297.765625 157.359375 297.765625 157.359375 C 291.007812 157.359375 288.460938 155.65625 288.460938 151.59375 C 288.460938 151.59375 288.460938 111.828125 288.460938 111.828125 C 288.460938 111.828125 276.9375 111.828125 276.9375 111.828125 C 276.9375 111.828125 276.9375 151.667969 276.9375 151.667969 Z M 276.9375 151.667969 "/>
<path style=" stroke:none;fill-rule:nonzero;fill:rgb(89.411765%,55.686275%,0%);fill-opacity:1;" d="M 212.414062 152.070312 C 212.414062 152.070312 212.414062 124.667969 212.414062 124.667969 C 212.414062 117.703125 217.296875 113.480469 226.957031 112.148438 C 227.957031 112 229.066406 111.925781 230.066406 111.925781 C 230.066406 111.925781 251.9375 111.925781 251.9375 111.925781 C 253.046875 111.925781 254.046875 112 255.15625 112.148438 C 264.816406 113.480469 269.699219 117.703125 269.699219 124.667969 C 269.699219 124.667969 269.699219 152.070312 269.699219 152.070312 C 269.699219 157.71875 267.625 160.742188 262.84375 162.710938 C 262.84375 162.710938 274.195312 172.960938 274.195312 172.960938 C 274.195312 172.960938 260.816406 172.960938 260.816406 172.960938 C 260.816406 172.960938 251.632812 164.667969 251.632812 164.667969 C 251.632812 164.667969 242.386719 165.253906 242.386719 165.253906 C 242.386719 165.253906 230.066406 165.253906 230.066406 165.253906 C 227.957031 165.253906 225.734375 164.957031 223.292969 164.289062 C 215.964844 162.292969 212.414062 158.441406 212.414062 152.070312 Z M 224.847656 151.402344 C 224.847656 151.773438 224.960938 152.144531 225.070312 152.589844 C 225.738281 155.773438 228.734375 157.550781 233.285156 157.550781 C 233.285156 157.550781 243.753906 157.550781 243.753906 157.550781 C 243.753906 157.550781 234.136719 148.863281 234.136719 148.863281 C 234.136719 148.863281 247.515625 148.863281 247.515625 148.863281 C 247.515625 148.863281 255.902344 156.441406 255.902344 156.441406 C 257.449219 155.617188 258.464844 154.355469 258.820312 152.738281 C 258.929688 152.367188 258.929688 151.996094 258.929688 151.625 C 258.929688 151.625 258.929688 125.332031 258.929688 125.332031 C 258.929688 125.039062 258.929688 124.667969 258.820312 124.296875 C 258.15625 121.332031 255.15625 119.628906 250.714844 119.628906 C 250.714844 119.628906 233.285156 119.628906 233.285156 119.628906 C 228.179688 119.628906 224.847656 121.851562 224.847656 125.332031 C 224.847656 125.332031 224.847656 151.402344 224.847656 151.402344 Z M 224.847656 151.402344 "/>
<path style=" stroke:none;fill-rule:nonzero;fill:rgb(0%,38.039216%,54.117647%);fill-opacity:1;" d="M 338.152344 99.078125 C 331.066406 98.886719 325.65625 99.546875 321.03125 101.496094 C 319.71875 102.050781 317.621094 102.066406 317.40625 103.714844 C 318.128906 104.472656 318.242188 105.601562 318.816406 106.535156 C 319.921875 108.324219 321.785156 110.71875 323.449219 111.976562 C 325.265625 113.351562 327.140625 114.820312 329.089844 116.007812 C 332.554688 118.121094 336.425781 119.332031 339.761719 121.449219 C 341.730469 122.699219 343.683594 124.269531 345.601562 125.679688 C 346.550781 126.378906 347.1875 127.460938 348.421875 127.898438 C 348.421875 127.832031 348.421875 127.761719 348.421875 127.695312 C 347.773438 126.871094 347.605469 125.734375 347.011719 124.875 C 346.140625 124 345.265625 123.128906 344.394531 122.253906 C 341.832031 118.855469 338.585938 115.867188 335.128906 113.386719 C 332.375 111.410156 326.210938 108.734375 325.058594 105.527344 C 324.992188 105.460938 324.925781 105.394531 324.859375 105.324219 C 326.8125 105.105469 329.097656 104.398438 330.902344 103.914062 C 333.929688 103.101562 336.636719 103.3125 339.761719 102.503906 C 341.171875 102.101562 342.582031 101.699219 343.992188 101.296875 C 343.992188 101.027344 343.992188 100.757812 343.992188 100.488281 C 342.410156 98.867188 341.285156 96.71875 339.558594 95.25 C 335.050781 91.40625 330.128906 87.566406 325.058594 84.367188 C 322.25 82.589844 318.773438 81.4375 315.796875 79.933594 C 314.792969 79.425781 313.035156 79.164062 312.371094 78.320312 C 310.804688 76.324219 309.953125 73.792969 308.746094 71.46875 C 306.21875 66.597656 303.734375 61.277344 301.496094 56.152344 C 299.96875 52.65625 298.972656 49.210938 297.066406 46.074219 C 287.921875 31.03125 278.078125 21.949219 262.828125 13.023438 C 259.585938 11.125 255.679688 10.375 251.550781 9.398438 C 249.335938 9.261719 247.121094 9.128906 244.902344 8.992188 C 243.550781 8.429688 242.144531 6.773438 240.875 5.972656 C 235.824219 2.777344 222.867188 -4.167969 219.125 4.964844 C 216.765625 10.726562 222.65625 16.351562 224.765625 19.273438 C 226.246094 21.320312 228.136719 23.617188 229.195312 25.921875 C 229.890625 27.4375 230.011719 28.957031 230.605469 30.558594 C 232.070312 34.503906 233.34375 38.800781 235.238281 42.449219 C 236.195312 44.292969 237.25 46.238281 238.460938 47.890625 C 239.203125 48.902344 240.472656 49.347656 240.675781 50.914062 C 239.429688 52.652344 239.359375 55.355469 238.660156 57.5625 C 235.511719 67.496094 236.699219 79.839844 241.28125 87.1875 C 242.683594 89.445312 245.992188 94.285156 250.542969 92.429688 C 254.523438 90.804688 253.632812 85.777344 254.773438 81.34375 C 255.03125 80.339844 254.871094 79.597656 255.375 78.925781 C 255.375 78.992188 255.375 79.058594 255.375 79.128906 C 256.585938 81.546875 257.792969 83.964844 259.003906 86.382812 C 261.683594 90.707031 266.445312 95.222656 270.480469 98.273438 C 272.574219 99.855469 274.222656 102.585938 276.925781 103.511719 C 276.925781 103.445312 276.925781 103.378906 276.925781 103.308594 C 276.859375 103.308594 276.792969 103.308594 276.726562 103.308594 C 276.199219 102.492188 275.378906 102.152344 274.710938 101.496094 C 273.136719 99.949219 271.382812 98.027344 270.078125 96.257812 C 266.410156 91.273438 263.164062 85.816406 260.210938 80.132812 C 258.800781 77.421875 257.574219 74.429688 256.382812 71.671875 C 255.925781 70.605469 255.929688 68.996094 254.976562 68.445312 C 253.671875 70.46875 251.753906 72.101562 250.746094 74.492188 C 249.132812 78.308594 248.925781 82.964844 248.328125 87.792969 C 247.976562 87.917969 248.132812 87.832031 247.925781 87.992188 C 245.121094 87.316406 244.132812 84.425781 243.09375 81.949219 C 240.457031 75.679688 239.964844 65.585938 242.285156 58.371094 C 242.886719 56.503906 245.597656 50.621094 244.5 48.898438 C 243.976562 47.175781 242.246094 46.179688 241.28125 44.867188 C 240.082031 43.242188 238.886719 41.101562 238.054688 39.222656 C 235.898438 34.335938 234.890625 28.847656 232.621094 23.90625 C 231.535156 21.546875 229.695312 19.15625 228.1875 17.054688 C 226.519531 14.730469 224.648438 13.015625 223.355469 10.203125 C 222.894531 9.203125 222.269531 7.601562 222.953125 6.574219 C 223.167969 5.882812 223.476562 5.59375 224.160156 5.367188 C 225.328125 4.464844 228.582031 5.667969 229.800781 6.171875 C 233.027344 7.515625 235.722656 8.792969 238.460938 10.605469 C 239.773438 11.476562 241.101562 13.164062 242.6875 13.628906 C 243.292969 13.628906 243.898438 13.628906 244.5 13.628906 C 247.335938 14.28125 250.511719 13.832031 253.160156 14.636719 C 257.84375 16.0625 262.039062 18.277344 265.847656 20.683594 C 277.457031 28.015625 286.949219 38.457031 293.441406 50.914062 C 294.484375 52.917969 294.9375 54.832031 295.859375 56.957031 C 297.714844 61.25 300.050781 65.660156 301.898438 69.855469 C 303.742188 74.042969 305.539062 78.265625 308.140625 81.746094 C 309.511719 83.578125 314.800781 84.558594 317.207031 85.574219 C 318.890625 86.289062 321.652344 87.03125 323.246094 87.992188 C 326.296875 89.835938 329.25 92.023438 332.109375 94.039062 C 333.539062 95.046875 337.933594 97.257812 338.152344 99.078125 Z M 338.152344 99.078125 "/>
<path style=" stroke:none;fill-rule:evenodd;fill:rgb(0%,38.039216%,54.117647%);fill-opacity:1;" d="M 248.128906 22.296875 C 246.648438 22.269531 245.605469 22.457031 244.5 22.699219 C 244.5 22.765625 244.5 22.832031 244.5 22.898438 C 244.570312 22.898438 244.636719 22.898438 244.703125 22.898438 C 245.40625 24.347656 246.652344 25.28125 247.523438 26.527344 C 248.195312 27.9375 248.863281 29.347656 249.535156 30.757812 C 249.601562 30.691406 249.671875 30.625 249.738281 30.558594 C 250.984375 29.679688 251.554688 28.273438 251.550781 26.125 C 251.050781 25.597656 250.976562 24.9375 250.542969 24.308594 C 249.96875 23.472656 248.851562 23 248.128906 22.296875 Z M 248.128906 22.296875 "/>
<path style=" stroke:none;fill-rule:evenodd;fill:rgb(89.411765%,55.686275%,0%);fill-opacity:1;" d="M 333.421875 157.140625 C 333.421875 162.214844 337.429688 165.636719 341.914062 165.636719 C 346.398438 165.636719 350.40625 162.214844 350.40625 157.140625 C 350.40625 152.0625 346.398438 148.644531 341.914062 148.644531 C 337.429688 148.644531 333.421875 152.0625 333.421875 157.140625 Z M 348.503906 157.140625 C 348.503906 160.992188 345.558594 163.867188 341.914062 163.867188 C 338.222656 163.867188 335.324219 160.992188 335.324219 157.140625 C 335.324219 153.285156 338.222656 150.410156 341.914062 150.410156 C 345.558594 150.410156 348.503906 153.285156 348.503906 157.140625 Z M 344.203125 161.988281 C 344.203125 161.988281 346.101562 161.988281 346.101562 161.988281 C 346.101562 161.988281 343.320312 157.730469 343.320312 157.730469 C 344.8125 157.570312 345.945312 156.84375 345.945312 155.078125 C 345.945312 153.105469 344.699219 152.289062 342.300781 152.289062 C 342.300781 152.289062 338.519531 152.289062 338.519531 152.289062 C 338.519531 152.289062 338.519531 161.988281 338.519531 161.988281 C 338.519531 161.988281 340.148438 161.988281 340.148438 161.988281 C 340.148438 161.988281 340.148438 157.796875 340.148438 157.796875 C 340.148438 157.796875 341.664062 157.796875 341.664062 157.796875 C 341.664062 157.796875 344.203125 161.988281 344.203125 161.988281 Z M 340.148438 156.4375 C 340.148438 156.4375 340.148438 153.648438 340.148438 153.648438 C 340.148438 153.648438 342.027344 153.648438 342.027344 153.648438 C 343 153.648438 344.179688 153.832031 344.179688 154.964844 C 344.179688 156.324219 343.113281 156.4375 341.890625 156.4375 C 341.890625 156.4375 340.148438 156.4375 340.148438 156.4375 Z M 340.148438 156.4375 "/>
</g>
</svg>
