<?xml version="1.0" encoding="UTF-8" standalone="no"?>
<!DOCTYPE svg PUBLIC "-//W3C//DTD SVG 1.1//EN" "http://www.w3.org/Graphics/SVG/1.1/DTD/svg11.dtd">
<svg xmlns="http://www.w3.org/2000/svg" xmlns:xlink="http://www.w3.org/1999/xlink" version="1.1" width="600" height="600">
<rect fill="#DDDDDD" stroke="none" x="135" y ="495" width="770" height ="50" />
<rect fill="#FFFF99" stroke="none" x="245" y ="395" width="660" height ="100" />
<rect fill="#DDDDDD" stroke="none" x="355" y ="245" width="550" height ="150" />
<rect fill="#FFFF99" stroke="none" x="465" y ="45" width="440" height ="200" />
<rect fill="#DDDDDD" stroke="none" x="575" y ="-205" width="330" height ="250" />
<rect fill="#FFFF99" stroke="none" x="685" y ="-505" width="220" height ="300" />
<rect fill="#DDDDDD" stroke="none" x="795" y ="-855" width="110" height ="350" />
<line x1="25" y1="545" x2="905" y2="545" fill="none" stroke="black" stroke-width="1"/>
<line x1="135" y1="540" x2="135" y2="550" fill="none" stroke="black" stroke-width="1"/>
<line x1="245" y1="540" x2="245" y2="550" fill="none" stroke="black" stroke-width="1"/>
<line x1="355" y1="540" x2="355" y2="550" fill="none" stroke="black" stroke-width="1"/>
<line x1="465" y1="540" x2="465" y2="550" fill="none" stroke="black" stroke-width="1"/>
<line x1="575" y1="540" x2="575" y2="550" fill="none" stroke="black" stroke-width="1"/>
<line x1="685" y1="540" x2="685" y2="550" fill="none" stroke="black" stroke-width="1"/>
<line x1="795" y1="540" x2="795" y2="550" fill="none" stroke="black" stroke-width="1"/>
<line x1="905" y1="540" x2="905" y2="550" fill="none" stroke="black" stroke-width="1"/>
<line x1="25" y1="645" x2="25" y2="-855" fill="none" stroke="black" stroke-width="1"/>
<line x1="20" y1="595" x2="30" y2="595" fill="none" stroke="black" stroke-width="1"/>
<line x1="20" y1="495" x2="30" y2="495" fill="none" stroke="black" stroke-width="1"/>
<line x1="20" y1="445" x2="30" y2="445" fill="none" stroke="black" stroke-width="1"/>
<line x1="20" y1="395" x2="30" y2="395" fill="none" stroke="black" stroke-width="1"/>
<line x1="20" y1="345" x2="30" y2="345" fill="none" stroke="black" stroke-width="1"/>
<line x1="20" y1="295" x2="30" y2="295" fill="none" stroke="black" stroke-width="1"/>
<line x1="20" y1="245" x2="30" y2="245" fill="none" stroke="black" stroke-width="1"/>
<line x1="20" y1="195" x2="30" y2="195" fill="none" stroke="black" stroke-width="1"/>
<line x1="20" y1="145" x2="30" y2="145" fill="none" stroke="black" stroke-width="1"/>
<line x1="20" y1="95" x2="30" y2="95" fill="none" stroke="black" stroke-width="1"/>
<line x1="20" y1="45" x2="30" y2="45" fill="none" stroke="black" stroke-width="1"/>
<line x1="20" y1="-5" x2="30" y2="-5" fill="none" stroke="black" stroke-width="1"/>
<line x1="20" y1="-55" x2="30" y2="-55" fill="none" stroke="black" stroke-width="1"/>
<line x1="20" y1="-105" x2="30" y2="-105" fill="none" stroke="black" stroke-width="1"/>
<line x1="20" y1="-155" x2="30" y2="-155" fill="none" stroke="black" stroke-width="1"/>
<line x1="20" y1="-205" x2="30" y2="-205" fill="none" stroke="black" stroke-width="1"/>
<line x1="20" y1="-255" x2="30" y2="-255" fill="none" stroke="black" stroke-width="1"/>
<line x1="20" y1="-305" x2="30" y2="-305" fill="none" stroke="black" stroke-width="1"/>
<line x1="20" y1="-355" x2="30" y2="-355" fill="none" stroke="black" stroke-width="1"/>
<line x1="20" y1="-405" x2="30" y2="-405" fill="none" stroke="black" stroke-width="1"/>
<line x1="20" y1="-455" x2="30" y2="-455" fill="none" stroke="black" stroke-width="1"/>
<line x1="20" y1="-505" x2="30" y2="-505" fill="none" stroke="black" stroke-width="1"/>
<line x1="20" y1="-555" x2="30" y2="-555" fill="none" stroke="black" stroke-width="1"/>
<line x1="20" y1="-605" x2="30" y2="-605" fill="none" stroke="black" stroke-width="1"/>
<line x1="20" y1="-655" x2="30" y2="-655" fill="none" stroke="black" stroke-width="1"/>
<line x1="20" y1="-705" x2="30" y2="-705" fill="none" stroke="black" stroke-width="1"/>
<line x1="20" y1="-755" x2="30" y2="-755" fill="none" stroke="black" stroke-width="1"/>
<line x1="20" y1="-805" x2="30" y2="-805" fill="none" stroke="black" stroke-width="1"/>
<line x1="20" y1="-855" x2="30" y2="-855" fill="none" stroke="black" stroke-width="1"/>
<line x1="20" y1="-905" x2="30" y2="-905" fill="none" stroke="black" stroke-width="1"/>
<line x1="20" y1="-955" x2="30" y2="-955" fill="none" stroke="black" stroke-width="1"/>
<line x1="20" y1="-1005" x2="30" y2="-1005" fill="none" stroke="black" stroke-width="1"/>
<line x1="20" y1="-1055" x2="30" y2="-1055" fill="none" stroke="black" stroke-width="1"/>
<line x1="20" y1="-1105" x2="30" y2="-1105" fill="none" stroke="black" stroke-width="1"/>
<line x1="20" y1="-1155" x2="30" y2="-1155" fill="none" stroke="black" stroke-width="1"/>
<line x1="20" y1="-1205" x2="30" y2="-1205" fill="none" stroke="black" stroke-width="1"/>
<line x1="20" y1="-1255" x2="30" y2="-1255" fill="none" stroke="black" stroke-width="1"/>
<polyline fill="none" stroke="black" stroke-width="1" points=" 135,545 135,495 245,495 245,395 355,395 355,245 465,245 465,45 575,45 575,-205 685,-205 685,-505 795,-505 795,-855 905,-855 905,-1255"/>
<path fill="none" stroke="green" stroke-width="2" d=" M25,549.1667 C28.3,549.1667 31.6,549.0992 34.9,548.9642 S41.5,548.6267 44.8,548.3567 S51.4,547.7492 54.7,547.3442 S61.3,546.4667 64.6,545.9267 S71.2,544.7792 74.5,544.1042 S81.1,542.6867 84.4,541.8767 S91,540.1892 94.3,539.2442 S100.9,537.2867 104.2,536.2067 S110.8,533.9792 114.1,532.7642 S120.7,530.2667 124,528.9167 S130.6,526.1492 133.9,524.6642 S140.5,521.6267 143.8,520.0067 S150.4,516.6992 153.7,514.9442 S160.3,511.3667 163.6,509.4767 S170.2,505.6292 173.5,503.6042 S180.1,499.4867 183.4,497.3267 S190,492.9392 193.3,490.6442 S199.9,485.9867 203.2,483.5567 S209.8,478.6292 213.1,476.0642 S219.7,470.8667 223,468.1667 S229.6,462.6992 232.9,459.8642 S239.5,454.1267 242.8,451.1567 S249.4,445.1492 252.7,442.0442 S259.3,435.7667 262.6,432.5267 S269.2,425.9792 272.5,422.6042 S279.1,415.7867 282.4,412.2767 S289,405.1892 292.3,401.5442 S298.9,394.1867 302.2,390.4067 S308.8,382.7792 312.1,378.8642 S318.7,370.9667 322,366.9167 S328.6,358.7492 331.9,354.5642 S338.5,346.1267 341.8,341.8067 S348.4,333.0992 351.7,328.6442 S358.3,319.6667 361.6,315.0767 S368.2,305.8292 371.5,301.1042 S378.1,291.5867 381.4,286.7267 S388,276.9392 391.3,271.9442 S397.9,261.8867 401.2,256.7567 S407.8,246.4292 411.1,241.1642 S417.7,230.5667 421,225.1667 S427.6,214.2992 430.9,208.7642 S437.5,197.6267 440.8,191.9567 S447.4,180.5492 450.7,174.7442 S457.3,163.0667 460.6,157.1267 S467.2,145.1792 470.5,139.1042 S477.1,126.8867 480.4,120.6767 S487,108.1892 490.3,101.8442 S496.9,89.08667 500.2,82.60667 S506.8,69.57917 510.1,62.96417 S516.7,49.66667 520,42.91667 S526.6,29.34917 529.9,22.46417 S536.5,8.626667 539.8,1.606667 S546.4,-12.50083 549.7,-19.65583 S556.3,-34.03333 559.6,-41.32333 S566.2,-55.97083 569.5,-63.39583 S576.1,-78.31333 579.4,-85.87333 S586,-101.0608 589.3,-108.7558 S595.9,-124.2133 599.2,-132.0433 S605.8,-147.7708 609.1,-155.7358 S615.7,-171.7333 619,-179.8333 S625.6,-196.1008 628.9,-204.3358 S635.5,-220.8733 638.8,-229.2433 S645.4,-246.0508 648.7,-254.5558 S655.3,-271.6333 658.6,-280.2733 S665.2,-297.6208 668.5,-306.3958 S675.1,-324.0133 678.4,-332.9233 S685,-350.8108 688.3,-359.8558 S694.9,-378.0133 698.2,-387.1933 S704.8,-405.6208 708.1,-414.9358 S714.7,-433.6333 718,-443.0833 S724.6,-462.0508 727.9,-471.6358 S734.5,-490.8733 737.8,-500.5933 S744.4,-520.1008 747.7,-529.9558 S754.3,-549.7333 757.6,-559.7233 S764.2,-579.7708 767.5,-589.8958 S774.1,-610.2133 777.4,-620.4733 S784,-641.0608 787.3,-651.4558 S793.9,-672.3133 797.2,-682.8433 S803.8,-703.9708 807.1,-714.6358 S813.7,-736.0333 817,-746.8333 S823.6,-768.5008 826.9,-779.4358 S833.5,-801.3733 836.8,-812.4433 S843.4,-834.6508 846.7,-845.8558 S853.3,-868.3333 856.6,-879.6733 S863.2,-902.4208 866.5,-913.8958 S873.1,-936.9133 876.4,-948.5233 S883,-971.8108 886.3,-983.5558 S892.9,-1007.113 896.2,-1018.993 S902.8,-1042.821 906.1,-1054.836 S912.7,-1078.933 916,-1091.083"/>
</svg>
