<svg width="240" height="240" viewBox="0 0 240 240" fill="none" xmlns="http://www.w3.org/2000/svg">
<path d="M16 116.093C36.7353 80.1737 75.5446 56 120 56C164.455 56 203.265 80.1737 224 116.093" stroke="#5F6368" stroke-width="0.5" stroke-dasharray="2 2"/>
<rect width="128" height="88" transform="matrix(1 0 -0.188924 0.981992 96 45)" fill="white" stroke="#5F6368"/>
<mask id="mask0" style="mask-type:alpha" maskUnits="userSpaceOnUse" x="79" y="45" width="145" height="87">
<rect width="128" height="88" transform="matrix(1 0 -0.188924 0.981992 96 45)" fill="white"/>
</mask>
<g mask="url(#mask0)">
<path d="M117.609 99.0096L116.098 106.866M113.609 99.0096L112.853 102.938M121.609 99.0096L120.476 104.902" stroke="#5F6368"/>
<path d="M117.264 121.595C117.932 118.124 115.718 115.311 112.319 115.311C112.19 115.311 112.061 115.315 111.932 115.323C111.614 109.895 107.564 105.884 101.825 105.884C97.2148 105.884 92.6985 108.472 89.8528 112.304C89.3595 112.215 88.8437 112.168 88.3083 112.168C83.2103 112.168 78.2655 116.389 77.2638 121.595" stroke="#5F6368"/>
<path d="M154.397 115.703C154.898 113.1 153.1 110.99 150.381 110.99C150.278 110.99 150.175 110.993 150.072 110.999C149.765 106.928 146.487 103.92 141.895 103.92C138.207 103.92 134.619 105.861 132.379 108.735C131.984 108.668 131.571 108.633 131.142 108.633C127.064 108.633 123.149 111.799 122.397 115.703" stroke="#5F6368"/>
<path d="M113.576 78.3878C114.528 73.4424 117.795 68.7855 122.395 65.8183L124.221 64.6399L125.595 65.8183C129.053 68.7855 130.528 73.4424 129.576 78.3878L126.176 96.0636H110.176L113.576 78.3878Z" fill="#FFEEDD" stroke="#5F6368"/>
<path fill-rule="evenodd" clip-rule="evenodd" d="M117.231 70.5318H128.944C128.227 68.718 127.098 67.1084 125.595 65.8183L124.221 64.6399L122.395 65.8183C120.395 67.1084 118.647 68.718 117.231 70.5318Z" fill="#FF6633"/>
<path d="M117.231 70.5318L116.846 70.2864L116.271 71.0228H117.137L117.231 70.5318ZM128.944 70.5318L128.85 71.0228H129.716L129.425 70.2864L128.944 70.5318ZM125.595 65.8183L125.97 65.4255L125.97 65.4255L125.595 65.8183ZM124.221 64.6399L124.597 64.2471L124.339 64.0261L123.997 64.2471L124.221 64.6399ZM122.395 65.8183L122.619 66.2111L122.395 65.8183ZM117.137 71.0228H128.85L129.039 70.0408H117.326L117.137 71.0228ZM125.219 66.2111C126.676 67.4609 127.769 69.0202 128.464 70.7773L129.425 70.2864C128.685 68.4159 127.521 66.7559 125.97 65.4255L125.219 66.2111ZM123.846 65.0327L125.219 66.2111L125.97 65.4255L124.597 64.2471L123.846 65.0327ZM122.619 66.2111L124.446 65.0327L123.997 64.2471L122.17 65.4255L122.619 66.2111ZM117.617 70.7773C118.988 69.0202 120.682 67.4609 122.619 66.2111L122.17 65.4255C120.108 66.7559 118.305 68.4159 116.846 70.2864L117.617 70.7773Z" fill="#5F6368"/>
<path d="M104.176 96.0636H110.176L111.309 90.1716L104.176 96.0636Z" fill="#FF6633"/>
<path d="M127.309 90.1716L126.176 96.0636H132.176L127.309 90.1716Z" fill="#FF6633"/>
<path d="M104.176 96.0636H110.176L111.309 90.1716L104.176 96.0636Z" stroke="#5F6368"/>
<path d="M127.309 90.1716L126.176 96.0636H132.176L127.309 90.1716Z" stroke="#5F6368"/>
<circle r="4" transform="matrix(1 0 -0.188924 0.981992 121.388 79.3697)" fill="white" stroke="#5F6368"/>
<rect width="64" height="88" transform="matrix(1 0 -0.188924 0.981992 160 45)" fill="#303030" stroke="#5F6368"/>
<path d="M172.93 59.5396H205.581" stroke="#FF3399" stroke-linejoin="round"/>
<path d="M172.19 56.8359L169.203 59.5394" stroke="#FF3399" stroke-linecap="square" stroke-linejoin="round"/>
<path d="M207.266 56.7839L209.213 59.4874M171.025 62.3469L169.203 59.5394L171.025 62.3469Z" stroke="#FF3399" stroke-linecap="square" stroke-linejoin="round"/>
<path d="M206.31 62.2948L209.213 59.4873" stroke="#FF3399" stroke-linecap="square" stroke-linejoin="round"/>
<path d="M178.683 70.5613H206.767M167.082 70.5613H172.122H167.082Z" stroke="#9933FF" stroke-linejoin="round"/>
<path d="M197.665 81.5834H204.804M164.962 81.5834H170.001H164.962ZM176.878 81.5834H191.681H176.878Z" stroke="#FF3399" stroke-linejoin="round"/>
<path d="M188.311 92.5533H202.484M162.851 92.5533H167.891H162.851ZM174.452 92.5533H182.011H174.452Z" stroke="#9933FF" stroke-linejoin="round"/>
<path d="M172.699 103.575H188.867M160.731 103.575H165.77H160.731Z" stroke="#FF3399" stroke-linejoin="round"/>
</g>
<rect width="168" height="8" transform="matrix(1 0 -0.188924 0.981992 39.3748 131.415)" fill="#DADCE0" stroke="#5F6368"/>
<rect width="128" height="8" transform="matrix(1 0 -0.188924 0.981992 39.3748 131.415)" fill="white" stroke="#5F6368"/>
<circle r="2" transform="matrix(1 0 -0.188924 0.981992 100.867 50.892)" fill="#3399FF" stroke="#5F6368"/>
<circle r="2" transform="matrix(1 0 -0.188924 0.981992 107.867 50.892)" fill="#CCEEFF" stroke="#5F6368"/>
<circle r="2" transform="matrix(1 0 -0.188924 0.981992 114.867 50.892)" fill="#66CCFF" stroke="#5F6368"/>
<rect width="32" height="64" rx="4" transform="matrix(1 0 0.180862 0.983508 19.9998 55)" fill="#DADCE0" stroke="#5F6368"/>
<rect width="32" height="64" rx="4" transform="matrix(1 0 0.180862 0.983508 23 55)" fill="white" stroke="#5F6368"/>
<path d="M46.4153 95.3237L48.043 104.175M42.4153 95.3237L43.2292 99.7495M50.4153 95.3237L51.6361 101.962" stroke="#5F6368"/>
<path d="M39.6986 83.6622C39.048 80.1243 40.129 76.7929 42.6165 74.6702C45.8846 76.7929 48.1909 80.1243 48.8415 83.6622L50.4951 92.6543L41.3522 92.6543L39.6986 83.6622Z" fill="#FFEEDD" stroke="#5F6368"/>
<path fill-rule="evenodd" clip-rule="evenodd" d="M39.7265 79.5876H47.3148C46.1961 77.6571 44.5798 75.9455 42.6164 74.6702C41.1219 75.9455 40.1352 77.6571 39.7265 79.5876ZM50.4433 92.3732H41.3004L41.3521 92.6543H50.495L50.4433 92.3732Z" fill="#FF6633"/>
<path d="M39.7265 79.5876L39.2278 79.4093L39.086 80.0794H39.817L39.7265 79.5876ZM47.3148 79.5876L47.4052 80.0794H48.1362L47.7479 79.4093L47.3148 79.5876ZM42.6164 74.6702L42.844 74.2768L42.5033 74.0555L42.244 74.2768L42.6164 74.6702ZM50.4433 92.3732H50.9433L50.8529 91.8815H50.3529L50.4433 92.3732ZM41.3004 92.3732L41.21 91.8815H40.71L40.8004 92.3732H41.3004ZM41.3521 92.6543H40.8521L40.9426 93.1461H41.4426L41.3521 92.6543ZM50.495 92.6543L50.5854 93.1461H51.0854L50.995 92.6543H50.495ZM39.817 80.0794H47.4052L47.2243 79.0959H39.6361L39.817 80.0794ZM42.3887 75.0636C44.2662 76.2831 45.8118 77.9197 46.8816 79.7659L47.7479 79.4093C46.5804 77.3944 44.8934 75.6079 42.844 74.2768L42.3887 75.0636ZM40.2253 79.7659C40.6161 77.9197 41.5597 76.2831 42.9887 75.0636L42.244 74.2768C40.6842 75.6079 39.6543 77.3944 39.2278 79.4093L40.2253 79.7659ZM50.3529 91.8815H41.21L41.3909 92.865H50.5337L50.3529 91.8815ZM41.8521 92.6543L41.8004 92.3732H40.8004L40.8521 92.6543H41.8521ZM50.4046 92.1626H41.2617L41.4426 93.1461H50.5854L50.4046 92.1626ZM49.9433 92.3732L49.995 92.6543H50.995L50.9433 92.3732H49.9433Z" fill="#5F6368"/>
<path d="M37.9243 92.6541H41.3529L40.7328 89.2821L37.9243 92.6541Z" fill="#FF6633"/>
<path d="M49.8756 89.2821L50.4957 92.6541H53.9243L49.8756 89.2821Z" fill="#FF6633"/>
<path d="M37.9243 92.6541H41.3529L40.7328 89.2821L37.9243 92.6541Z" stroke="#5F6368"/>
<path d="M49.8756 89.2821L50.4957 92.6541H53.9243L49.8756 89.2821Z" stroke="#5F6368"/>
<circle r="2.28572" transform="matrix(1 0 0.180862 0.983508 44.2445 83.5213)" fill="white" stroke="#5F6368"/>
<path fill-rule="evenodd" clip-rule="evenodd" d="M178.8 200C179.587 196.123 180 192.11 180 188C180 154.863 153.137 128 120 128C86.8629 128 60 154.863 60 188C60 192.11 60.4132 196.123 61.2002 200H178.8Z" fill="white"/>
<path d="M61.2002 200C60.4132 196.123 60 192.11 60 188C60 154.863 86.8629 128 120 128C153.137 128 180 154.863 180 188C180 192.11 179.587 196.123 178.8 200" stroke="#5F6368" stroke-width="0.5" stroke-dasharray="2 2"/>
<path d="M126 164.847C124.093 164.295 122.08 164 120 164C112.372 164 105.651 167.97 101.705 174" stroke="#5F6368" stroke-width="0.5" stroke-dasharray="2 2"/>
<path fill-rule="evenodd" clip-rule="evenodd" d="M167.991 187.082C167.634 160.881 146.282 139.75 119.995 139.75C93.7082 139.75 72.3565 160.881 72 187.084C72.0416 187.459 72.3595 187.75 72.7454 187.75H87.9955C87.9955 187.75 87.9955 187.75 87.9955 187.75C87.9955 170.077 102.322 155.75 119.995 155.75C137.669 155.75 151.995 170.077 151.995 187.75L167.245 187.75C167.632 187.75 167.95 187.458 167.991 187.082Z" fill="#CCEEFF"/>
<path d="M167.991 187.082L168.488 187.137L168.491 187.106L168.491 187.076L167.991 187.082ZM72 187.084L71.5 187.077L71.4996 187.108L71.5031 187.139L72 187.084ZM87.9955 187.75V188.25H88.4955V187.75H87.9955ZM151.995 187.75H151.495V188.25H151.995V187.75ZM167.245 187.75V188.25V187.75ZM168.491 187.076C168.13 160.601 146.556 139.25 119.995 139.25V140.25C146.008 140.25 167.138 161.16 167.491 187.089L168.491 187.076ZM119.995 139.25C93.4344 139.25 71.8602 160.601 71.5 187.077L72.5 187.091C72.8527 161.161 93.9821 140.25 119.995 140.25V139.25ZM72.7454 187.25C72.6171 187.25 72.5108 187.153 72.4969 187.029L71.5031 187.139C71.5725 187.764 72.1019 188.25 72.7454 188.25V187.25ZM87.9955 187.25H72.7454V188.25H87.9955V187.25ZM87.4955 187.75C87.4955 187.75 87.4955 187.75 87.4955 187.75C87.4955 187.75 87.4955 187.75 87.4955 187.75C87.4955 187.75 87.4955 187.75 87.4955 187.75V187.75V187.75C87.4955 187.75 87.4955 187.75 87.4955 187.75C87.4955 187.75 87.4955 187.75 87.4955 187.75C87.4955 187.75 87.4955 187.75 87.4955 187.75C87.4955 187.75 87.4955 187.75 87.4955 187.75V187.75V187.75C87.4955 187.75 87.4955 187.75 87.4955 187.75C87.4955 187.75 87.4955 187.75 87.4955 187.75C87.4955 187.75 87.4955 187.75 87.4955 187.75H88.4955C88.4955 187.75 88.4955 187.75 88.4955 187.75C88.4955 187.75 88.4955 187.75 88.4955 187.75C88.4955 187.75 88.4955 187.75 88.4955 187.75V187.75V187.75C88.4955 187.75 88.4955 187.75 88.4955 187.75C88.4955 187.75 88.4955 187.75 88.4955 187.75C88.4955 187.75 88.4955 187.75 88.4955 187.75C88.4955 187.75 88.4955 187.75 88.4955 187.75V187.75V187.75C88.4955 187.75 88.4955 187.75 88.4955 187.75C88.4955 187.75 88.4955 187.75 88.4955 187.75C88.4955 187.75 88.4955 187.75 88.4955 187.75H87.4955ZM119.995 155.25C102.046 155.25 87.4955 169.801 87.4955 187.75H88.4955C88.4955 170.353 102.598 156.25 119.995 156.25V155.25ZM152.495 187.75C152.495 169.801 137.945 155.25 119.995 155.25V156.25C137.392 156.25 151.495 170.353 151.495 187.75H152.495ZM167.245 187.25L151.995 187.25V188.25L167.245 188.25V187.25ZM167.494 187.028C167.48 187.153 167.374 187.25 167.245 187.25V188.25C167.89 188.25 168.419 187.763 168.488 187.137L167.494 187.028Z" fill="#5F6368"/>
<path fill-rule="evenodd" clip-rule="evenodd" d="M167.991 187.083C167.95 187.458 167.632 187.75 167.246 187.75H151.996C151.996 178.914 148.414 170.914 142.623 165.123L153.937 153.809C162.477 162.349 167.814 174.093 167.991 187.083Z" fill="#CC66FF"/>
<path d="M167.991 187.083L168.488 187.137L168.491 187.107L168.491 187.076L167.991 187.083ZM151.996 187.75H151.496L151.496 188.25H151.996V187.75ZM142.623 165.123L142.269 164.769L141.916 165.123L142.269 165.476L142.623 165.123ZM153.937 153.809L154.29 153.455L153.937 153.102L153.583 153.455L153.937 153.809ZM167.494 187.028C167.48 187.153 167.374 187.25 167.246 187.25V188.25C167.89 188.25 168.42 187.763 168.488 187.137L167.494 187.028ZM167.246 187.25H151.996V188.25H167.246V187.25ZM152.496 187.75C152.496 178.776 148.857 170.65 142.977 164.769L142.269 165.476C147.97 171.177 151.496 179.051 151.496 187.75H152.496ZM142.977 165.476L154.29 154.163L153.583 153.455L142.269 164.769L142.977 165.476ZM153.583 154.163C162.035 162.614 167.316 174.235 167.491 187.089L168.491 187.076C168.312 173.951 162.919 162.084 154.29 153.455L153.583 154.163Z" fill="#5F6368"/>
<path d="M135.269 193.077C134.492 195.251 133.233 197.292 131.492 199.032C125.201 205.323 115.003 205.323 108.713 199.032C102.423 192.742 102.423 182.544 108.713 176.254C110.454 174.513 112.494 173.254 114.668 172.476L147.873 157.883C149.133 157.329 150.417 158.612 149.863 159.873L135.269 193.077Z" fill="white" stroke="#5F6368"/>
<circle cx="119.995" cy="187.75" r="8" transform="rotate(45 119.995 187.75)" fill="#0066FF" stroke="#5F6368"/>
<path d="M145.414 156C138.358 150.353 129.551 147 120 147C110.449 147 101.642 150.353 94.5864 156" stroke="#5F6368" stroke-width="0.5" stroke-dasharray="2 2"/>
<circle cx="22.5" cy="188.75" r="5" fill="#66CCFF"/>
<rect x="176.25" y="25" width="7.5" height="7.5" fill="#CC66FF"/>
<path d="M210 188.75L215.413 198.125H204.587L210 188.75Z" fill="#FF66CC"/>
</svg>
